<svg xmlns="http://www.w3.org/2000/svg" viewBox="0 0 160 160" fill="none" aria-hidden="true">
  <!-- Soft sky circle -->
  <circle cx="80" cy="80" r="70" fill="#64748b" fill-opacity="0.08"/>
  <circle cx="80" cy="80" r="70" stroke="#64748b" stroke-width="1" fill="none" opacity="0.2"/>
  <!-- Sun -->
  <circle cx="118" cy="42" r="12" fill="#64748b" opacity="0.35"/>
  <!-- Location pin above school -->
  <path d="M80 28c-6.6 0-12 5.4-12 12 0 9 12 22 12 22s12-13 12-22c0-6.6-5.4-12-12-12z" fill="#64748b" opacity="0.7"/>
  <circle cx="80" cy="38" r="4" fill="#f8fafc"/>
  <!-- School building: central block with clock -->
  <rect x="52" y="52" width="56" height="56" rx="2" fill="#64748b" fill-opacity="0.12" stroke="#64748b" stroke-width="1.5" opacity="0.9"/>
  <circle cx="80" cy="68" r="8" fill="none" stroke="#64748b" stroke-width="1.5" opacity="0.5"/>
  <rect x="62" y="82" width="36" height="20" rx="1" fill="#64748b" stroke="#64748b" stroke-width="1" opacity="0.3"/>
  <!-- Left wing -->
  <rect x="28" y="64" width="22" height="44" rx="2" fill="#64748b" fill-opacity="0.12" stroke="#64748b" stroke-width="1.5" opacity="0.9"/>
  <rect x="32" y="70" width="6" height="8" fill="#64748b" opacity="0.2"/>
  <rect x="40" y="70" width="6" height="8" fill="#64748b" opacity="0.2"/>
  <rect x="32" y="82" width="6" height="8" fill="#64748b" opacity="0.2"/>
  <rect x="40" y="82" width="6" height="8" fill="#64748b" opacity="0.2"/>
  <!-- Right wing -->
  <rect x="110" y="64" width="22" height="44" rx="2" fill="#64748b" fill-opacity="0.12" stroke="#64748b" stroke-width="1.5" opacity="0.9"/>
  <rect x="114" y="70" width="6" height="8" fill="#64748b" opacity="0.2"/>
  <rect x="122" y="70" width="6" height="8" fill="#64748b" opacity="0.2"/>
  <rect x="114" y="82" width="6" height="8" fill="#64748b" opacity="0.2"/>
  <rect x="122" y="82" width="6" height="8" fill="#64748b" opacity="0.2"/>
  <!-- Roof peaks -->
  <path d="M44 64 L55 52 L66 64 Z" fill="#64748b" stroke="#64748b" stroke-width="1" opacity="0.3"/>
  <path d="M94 64 L105 52 L116 64 Z" fill="#64748b" stroke="#64748b" stroke-width="1" opacity="0.3"/>
  <path d="M52 52 L80 28 L108 52 Z" fill="#64748b" stroke="#64748b" stroke-width="1" opacity="0.25"/>
</svg>
